<svg width="147" height="50" viewBox="0 0 147 50" fill="none" xmlns="http://www.w3.org/2000/svg">
<path fill-rule="evenodd" clip-rule="evenodd" d="M0 10C0 4.47715 4.47715 0 10 0H40C45.5228 0 50 4.47715 50 10V40C50 45.5228 45.5228 50 40 50H10C4.47715 50 0 45.5228 0 40V10ZM59.2262 14.0615L57.0045 7.13672H53.8532V17.0898H56.2526V14.7656L56.0202 10.001L58.4332 17.0898H60.0192L62.4254 10.0078L62.193 14.7656V17.0898H64.5993V7.13672H61.4411L59.2262 14.0615ZM75.1392 14.8955C75.4992 14.1481 75.6792 13.2891 75.6792 12.3184V11.8604C75.6747 10.9033 75.4878 10.0557 75.1187 9.31738C74.7541 8.57454 74.2414 8.0026 73.5806 7.60156C72.9198 7.20052 72.1678 7 71.3247 7C70.4725 7 69.7114 7.2028 69.0415 7.6084C68.3762 8.014 67.8635 8.5905 67.5034 9.33789C67.148 10.0807 66.9702 10.9398 66.9702 11.915V12.4756C66.9885 13.4144 67.1799 14.2461 67.5444 14.9707C67.9136 15.6953 68.4263 16.2536 69.0825 16.6455C69.7388 17.0329 70.4907 17.2266 71.3384 17.2266C72.1861 17.2266 72.9403 17.026 73.6011 16.625C74.2665 16.2194 74.7792 15.6429 75.1392 14.8955ZM72.7398 9.65234C73.0724 10.1628 73.2388 10.9124 73.2388 11.9014V12.3594C73.2342 13.3255 73.0679 14.0661 72.7398 14.5811C72.4116 15.096 71.9445 15.3535 71.3384 15.3535C70.7004 15.3535 70.2196 15.0915 69.896 14.5674C69.5724 14.0433 69.4107 13.2936 69.4107 12.3184L69.4175 11.5869C69.4859 9.78223 70.1216 8.87988 71.3247 8.87988C71.94 8.87988 72.4116 9.13737 72.7398 9.65234ZM82.3227 13.5967V17.0898H84.7289V7.13672H81.1332C79.9164 7.13672 78.9844 7.40788 78.3373 7.9502C77.6902 8.48796 77.3666 9.24902 77.3666 10.2334C77.3666 11.3545 77.8109 12.2044 78.6996 12.7832L76.6557 17.0898H79.2602L80.9418 13.5967H82.3227ZM80.0668 11.5459C79.8617 11.318 79.7592 10.9512 79.7592 10.4453C79.7592 9.97135 79.864 9.61133 80.0736 9.36523C80.2878 9.11458 80.6342 8.98926 81.1127 8.98926H82.3227V11.8877H81.099C80.616 11.8877 80.2719 11.7738 80.0668 11.5459ZM94.1261 15.2441V7.13672H91.7267V17.0898H103.833V7.13672H101.447V15.2441H99.0002V7.13672H96.6007V15.2441H94.1261ZM108.815 13.1523H109.95L112.063 17.0898H114.899L111.823 11.7305L114.558 7.13672H111.652L109.738 10.9854H108.815V7.13672H106.416V17.0898H108.815V13.1523ZM124.284 14.8955C124.644 14.1481 124.824 13.2891 124.824 12.3184V11.8604C124.82 10.9033 124.633 10.0557 124.264 9.31738C123.899 8.57454 123.386 8.0026 122.726 7.60156C122.065 7.20052 121.313 7 120.47 7C119.617 7 118.856 7.2028 118.186 7.6084C117.521 8.014 117.008 8.5905 116.648 9.33789C116.293 10.0807 116.115 10.9398 116.115 11.915V12.4756C116.133 13.4144 116.325 14.2461 116.689 14.9707C117.059 15.6953 117.571 16.2536 118.227 16.6455C118.884 17.0329 119.636 17.2266 120.483 17.2266C121.331 17.2266 122.085 17.026 122.746 16.625C123.411 16.2194 123.924 15.6429 124.284 14.8955ZM121.885 9.65234C122.217 10.1628 122.384 10.9124 122.384 11.9014V12.3594C122.379 13.3255 122.213 14.0661 121.885 14.5811C121.557 15.096 121.089 15.3535 120.483 15.3535C119.845 15.3535 119.365 15.0915 119.041 14.5674C118.717 14.0433 118.556 13.2936 118.556 12.3184L118.562 11.5869C118.631 9.78223 119.267 8.87988 120.47 8.87988C121.085 8.87988 121.557 9.13737 121.885 9.65234ZM135.337 17.0898V7.13672H128.419L128.248 11.7168C128.184 12.9427 128.045 13.8154 127.831 14.335C127.617 14.8499 127.27 15.1416 126.792 15.21L126.457 15.2441V17.0898H127.099C127.897 17.0807 128.526 16.9189 128.986 16.6045C129.451 16.2855 129.809 15.7819 130.059 15.0938C130.31 14.4056 130.47 13.485 130.538 12.332L130.702 8.98926H132.937V17.0898H135.337ZM140.442 15.2305H143.73L144.311 17.0898H146.888L143.211 7.13672H140.955L137.304 17.0898H139.868L140.442 15.2305ZM143.156 13.3779H141.016L142.083 9.92578L143.156 13.3779ZM63.2422 43.0898H67.3555V26.0273H53V43.0898H57.1133V29.2031H63.2422V43.0898ZM85.3653 39.3281C85.9825 38.0469 86.2911 36.5742 86.2911 34.9102V34.125C86.2833 32.4844 85.963 31.0312 85.3302 29.7656C84.7052 28.4922 83.8262 27.5117 82.6934 26.8242C81.5606 26.1367 80.2716 25.793 78.8262 25.793C77.3653 25.793 76.0606 26.1406 74.9122 26.8359C73.7716 27.5312 72.8927 28.5195 72.2755 29.8008C71.6661 31.0742 71.3614 32.5469 71.3614 34.2188V35.1797C71.3927 36.7891 71.7208 38.2148 72.3458 39.457C72.9786 40.6992 73.8575 41.6562 74.9825 42.3281C76.1075 42.9922 77.3966 43.3242 78.8497 43.3242C80.3028 43.3242 81.5958 42.9805 82.7286 42.293C83.8692 41.5977 84.7481 40.6094 85.3653 39.3281ZM81.252 30.3398C81.8223 31.2148 82.1075 32.5 82.1075 34.1953V34.9805C82.0997 36.6367 81.8145 37.9062 81.252 38.7891C80.6895 39.6719 79.8887 40.1133 78.8497 40.1133C77.7559 40.1133 76.9317 39.6641 76.377 38.7656C75.8223 37.8672 75.545 36.582 75.545 34.9102L75.5567 33.6562C75.6739 30.5625 76.7637 29.0156 78.8262 29.0156C79.8809 29.0156 80.6895 29.457 81.252 30.3398ZM104.313 43.0898V26.0273H92.4533L92.1603 33.8789C92.0509 35.9805 91.8127 37.4766 91.4455 38.3672C91.0783 39.25 90.4845 39.75 89.6642 39.8672L89.09 39.9258V43.0898H90.1916C91.5587 43.0742 92.6369 42.7969 93.4259 42.2578C94.2228 41.7109 94.8361 40.8477 95.2658 39.668C95.6955 38.4883 95.9689 36.9102 96.0861 34.9336L96.3673 29.2031H100.199V43.0898H104.313ZM112.912 35.8594H119.381V32.8008H112.912V29.2031H120.576V26.0273H108.799V43.0898H120.553V39.9258H112.912V35.8594ZM110.721 22.3594C110.385 22.6641 110.217 23.0312 110.217 23.4609C110.217 23.8906 110.385 24.2578 110.721 24.5625C111.065 24.8672 111.487 25.0195 111.987 25.0195C112.487 25.0195 112.905 24.8672 113.24 24.5625C113.584 24.2578 113.756 23.8906 113.756 23.4609C113.756 23.0312 113.584 22.6641 113.24 22.3594C112.905 22.0547 112.487 21.9023 111.987 21.9023C111.487 21.9023 111.065 22.0547 110.721 22.3594ZM116.803 22.3594C116.467 22.6641 116.299 23.0312 116.299 23.4609C116.299 23.8906 116.467 24.2578 116.803 24.5625C117.147 24.8672 117.569 25.0195 118.069 25.0195C118.569 25.0195 118.987 24.8672 119.322 24.5625C119.666 24.2578 119.838 23.8906 119.838 23.4609C119.838 23.0312 119.666 22.6641 119.322 22.3594C118.987 22.0547 118.569 21.9023 118.069 21.9023C117.569 21.9023 117.147 22.0547 116.803 22.3594ZM132.657 29.2031H137.778V26.0273H123.516V29.2031H128.543V43.0898H132.657V29.2031ZM27.25 18.3438V20.3125C23.6641 19.5391 20.4297 17.7109 18.0391 15.0391C18.8125 12.7188 20.0078 10.6797 21.4844 8.92188C22.0469 8.21875 23.2422 8.57031 23.3828 9.48438C23.875 12.7188 25.2109 15.7422 27.25 18.3438ZM29.5 18.6953C29.5 15.5312 31.9609 13 35.125 13H43L40.75 17.5V28.8203C40.75 35.0078 35.6875 40 29.5 40H24.0859L19.4453 44.0078C19.0234 44.3594 18.4609 44.5703 17.8984 44.5C11.4297 44.2891 8.40625 41.0547 7.14062 39.1562C6.71875 38.5234 7.07031 37.6094 7.84375 37.4688L17.9688 34.9375C17.0547 34.2344 16.1406 33.5312 15.2266 32.6172C11.6406 29.1719 9.25 24.5312 9.25 19.5391C9.25 16.6562 9.88281 13.8438 11.0781 11.3828C11.4297 10.5391 12.6953 10.6094 13.1172 11.4531C15.9297 17.8516 22.1172 22.4219 29.5 22.8438V18.6953ZM34 18.6953C34 19.2578 34.4922 19.8203 35.125 19.8203C35.6875 19.8203 36.25 19.2578 36.25 18.6953C36.25 18.0625 35.6875 17.5703 35.125 17.5703C34.4922 17.5703 34 18.0625 34 18.6953Z" fill="#1665AA"/>
</svg>
